
<svg width="300" height="300" viewBox="0 0 300 300" fill="none" xmlns="http://www.w3.org/2000/svg">
  <circle cx="150" cy="150" r="145" fill="#E8F5E9" stroke="#4CAF50" stroke-width="10"/>
  <path d="M90 110C90 104.477 94.4772 100 100 100H200C205.523 100 210 104.477 210 110V190C210 195.523 205.523 200 200 200H100C94.4772 200 90 195.523 90 190V110Z" fill="#81C784"/>
  <path d="M120 80C120 74.4772 124.477 70 130 70H170C175.523 70 180 74.4772 180 80V100H120V80Z" fill="#4CAF50"/>
  <path d="M150 160C161.046 160 170 151.046 170 140C170 128.954 161.046 120 150 120C138.954 120 130 128.954 130 140C130 151.046 138.954 160 150 160Z" fill="white"/>
  <path d="M110 180C110 168.954 118.954 160 130 160H170C181.046 160 190 168.954 190 180C190 191.046 181.046 200 170 200H130C118.954 200 110 191.046 110 180Z" fill="#4CAF50"/>
  <path d="M150 150C155.523 150 160 145.523 160 140C160 134.477 155.523 130 150 130C144.477 130 140 134.477 140 140C140 145.523 144.477 150 150 150Z" fill="#4CAF50"/>
  <path d="M125 220L130 200H170L175 220C175 220 160 230 150 230C140 230 125 220 125 220Z" fill="#81C784"/>
</svg>
